<?xml version="1.0" encoding="UTF-8"?>
<!-- Creator: CorelDRAW X7 -->
<svg xmlns="http://www.w3.org/2000/svg" xml:space="preserve" width="1500px" height="1000px" version="1.0" style="shape-rendering:geometricPrecision; text-rendering:geometricPrecision; image-rendering:optimizeQuality; fill-rule:evenodd; clip-rule:evenodd"
viewBox="0 0 15000 10000">
 <defs>
  <style type="text/css">
   <![CDATA[
    .fil2 {fill:#FFF}
    .fil3 {fill:#000}
    .fil0 {fill:#D52B1E}
    .fil6 {fill:#FCDB09}
    .fil1 {fill:#0039A6}
    .fil5 {fill:#FCDB09;fill-rule:nonzero}
   ]]>
  </style>
 </defs>
  <rect class="fil0" width="15000" height="10000"/>
  <rect class="fil1" width="15000" height="5000"/>
  <polygon class="fil2" points="0,5000 2986,2766 3889,3105 5087,2073 6006,2566 7500,1056 8994,2566 9913,2073 11111,3105 12014,2766 15000,5000 "/>
  <path class="fil3" d="M7162 3735c-92,-39 -258,-127 -354,-119 -241,20 -69,165 -117,284 17,32 41,55 75,70l116 49c-136,48 -397,162 -501,-6 -135,-13 -181,-133 -210,-252l-92 -294c41,0 96,-4 134,6 110,-205 265,-433 469,-548 -139,-240 -145,-344 -410,-511 -233,-147 -373,-346 -443,-612 -111,-422 -397,-771 -719,-1055 -109,-97 -75,-208 90,-229 129,-17 263,-12 385,33 -57,-155 247,-169 480,-16 -1,-54 35,-82 88,-72 154,31 283,96 353,230 50,-53 136,14 170,51 98,106 125,190 130,196 14,18 237,146 232,407 93,68 157,159 154,277 93,79 154,183 131,309l28 34c82,-229 303,-368 505,-483 403,-231 683,-621 886,-1029 68,-136 188,-131 254,29 53,130 85,270 71,409 71,-53 126,4 153,64 35,78 34,187 25,276l0 0c-6,54 -12,92 -31,147 54,-18 96,7 100,67 10,167 -22,318 -142,425 31,15 34,41 42,70l-4 1c-3,139 -206,302 -206,302 -65,168 -173,306 -354,349 -44,115 -119,206 -242,234 -51,110 -132,198 -257,217 -33,79 -85,156 -168,188 408,250 795,535 1157,849 50,44 186,156 92,223 -59,42 -334,30 -433,30 128,87 114,263 41,362 -125,169 -434,173 -622,164 -275,-14 -559,-71 -826,-139 -30,1 -322,128 -567,117 -279,-12 -522,-293 -260,-533 99,-92 292,-270 421,-142 56,56 34,176 -51,245 -58,47 -172,55 -193,105 15,22 72,31 96,31 149,0 325,-55 473,-103 -103,-10 -284,-137 -227,-291 39,-108 159,-97 253,-97 -83,-91 -150,-197 -175,-319zm215 686c11,-4 21,-7 32,-10l-53 -25 21 35zm112 -36c14,-4 28,-8 42,-12l10 -46 -65 0 13 58zm251 -62c41,-8 81,-15 121,-21 -33,-12 -61,-29 -84,-52l-37 73zm186 261c160,18 415,18 561,-50 -69,-15 -190,-9 -242,-5 -108,7 -214,29 -319,55z"/>
   <path class="fil5" d="M6745 2895c60,-157 207,-278 359,-377 103,-67 178,-169 210,-277 28,-97 18,-192 -36,-253 -34,89 -111,185 -230,286 -21,18 -48,-14 -27,-32 188,-159 349,-367 134,-557 -27,116 -119,248 -277,395 -20,18 -48,-12 -28,-31 218,-203 398,-455 154,-640 -26,161 -136,320 -258,456 -18,21 -49,-7 -31,-27 227,-253 388,-560 90,-810 45,193 -32,396 -222,602 -19,21 -49,-8 -31,-28 191,-207 263,-410 203,-597 -26,-84 -124,-239 -195,-260 -3,0 -5,-1 -7,-1l0 0c0,0 0,0 0,0 -7,4 -21,131 -22,162 9,142 -22,325 -92,557 -8,26 -48,14 -40,-12 72,-238 123,-486 71,-660 -43,-143 -152,-224 -330,-259l0 0c-4,-1 -5,-4 -5,-3 -3,17 41,152 54,180 85,148 102,358 54,625 -5,27 -46,19 -41,-8 64,-353 22,-661 -260,-777l0 0c-106,-41 -231,-78 -289,-35l0 0 -1 1 0 0c-11,9 13,43 56,104 24,34 32,52 61,79 145,138 225,356 252,624 3,28 -38,32 -41,5 -49,-482 -270,-805 -771,-740 -87,12 -126,42 -52,107 337,299 626,658 740,1090 66,253 197,435 413,571 287,181 296,301 435,540z"/>
  <path class="fil5" d="M7401 3734c92,16 165,14 254,3l147 431 0 0c29,80 176,92 266,96 -27,-19 -50,-46 -64,-82l-188 -442c-11,-25 27,-41 38,-16l188 442c25,61 89,94 148,99l111 0c-30,-19 -56,-45 -75,-81l0 0 -248 -442c-13,-24 23,-44 37,-20l247 442c28,59 105,96 165,101l150 0c-32,-19 -62,-44 -87,-79l0 0 -332 -441c-17,-22 17,-47 33,-25l332 441c31,36 43,51 85,73 84,43 169,31 270,31 -37,-18 -72,-43 -106,-76l-459 -442c-19,-19 9,-49 29,-30l459 442c57,57 146,101 221,106 91,-1 150,-3 169,-17 13,-9 -15,-42 -97,-113 -344,-299 -709,-568 -1093,-808l-457 -267c-24,-13 -4,-50 20,-37l236 133c69,28 127,29 176,3 43,-24 80,-70 109,-139 -126,-5 -264,-79 -380,-159 -23,-16 1,-50 24,-35 207,143 473,264 611,-18 -126,5 -287,-53 -482,-175 -24,-14 -2,-50 22,-35 269,168 578,285 702,-21 -148,16 -328,-30 -541,-138 -24,-13 -5,-50 19,-38 354,179 692,228 858,-134 -185,101 -416,78 -680,-60 -25,-13 -5,-50 19,-37 367,192 663,153 853,-149l0 0c19,-30 34,-70 29,-87l0 0c0,-1 0,-1 0,-1l0 0c-6,-7 -140,14 -173,21 -144,49 -340,67 -597,58 -27,0 -26,-42 2,-41 265,8 532,-7 697,-109 135,-83 188,-218 176,-411 -1,-4 0,-6 0,-6 -17,1 -144,82 -170,104 -128,128 -339,204 -626,227 -27,3 -31,-39 -3,-41 350,-28 683,-144 727,-482l0 0c15,-118 14,-263 -45,-308l0 0c-13,-10 -42,25 -93,87 -28,33 -45,47 -65,84 -102,187 -303,328 -571,430 -25,10 -40,-29 -14,-39 264,-101 467,-243 560,-433 80,-165 73,-354 -13,-563 -14,-34 -39,-81 -67,-82 -25,-2 -47,34 -59,58 -214,428 -503,822 -915,1057 -225,129 -456,278 -498,541 -73,463 -285,422 -502,660 -48,52 -83,107 -105,164 151,-54 281,-32 435,4 26,6 17,47 -10,40 -173,-40 -285,-57 -451,11 -220,92 -404,384 -520,610 -23,-25 -24,-33 -65,-37l66 209c18,111 61,186 143,197 -13,-55 0,-126 -20,-130 -26,-6 -18,-47 9,-41 89,19 -1,175 104,239 57,35 148,20 219,-1 -37,-27 -62,-64 -78,-106l0 0 -4 -11c37,-46 3,-89 -3,-149l0 0 0 0c-30,-134 73,-188 193,-198 161,-13 368,149 598,188z"/>
  <path class="fil5" d="M7467 4257l83 0c45,5 63,34 61,76 56,-27 103,-71 105,-133 3,-62 -82,-74 -132,-76 -26,-1 -53,-69 83,-30 13,-40 17,-129 8,-170l-49 -142c-135,15 -261,-2 -393,-50 39,169 155,281 281,392l-233 0c-79,-8 -128,10 -137,75l0 0c-8,63 46,114 110,153 -21,-74 10,-107 46,-156 16,65 20,96 107,138 -3,-42 15,-73 60,-77z"/>
  <path class="fil5" d="M7840 4533c110,-27 287,-71 400,-74 166,-11 264,0 308,21 87,42 16,104 -74,134 -147,51 -445,82 -785,-2l-213 59c231,56 1380,324 1347,-171 -14,-211 -448,-179 -591,-169 -74,5 -150,12 -227,21 0,41 8,88 -13,90 -21,2 -14,-46 -14,-86l-69 10c0,34 7,74 -13,76 -20,1 -13,-38 -13,-73 -23,4 -46,8 -70,12 0,40 8,86 -13,88 -21,1 -13,-44 -13,-83 -23,4 -46,8 -70,13 0,42 9,93 -13,95 -21,2 -13,-48 -13,-90 -22,5 -46,10 -69,16 0,44 8,98 -13,99 -22,2 -14,-49 -14,-91 -22,6 -46,12 -69,20l0 84c0,19 -26,21 -26,2l0 -78c-23,7 -47,14 -70,21l0 86c0,19 -26,21 -26,3l0 -80 -70 22c0,43 9,95 -13,97 -21,1 -13,-47 -13,-89 -23,8 -46,15 -69,22 0,41 7,89 -14,91 -20,2 -13,-44 -13,-83 -92,27 -459,140 -533,0 -23,-44 6,-86 48,-117 74,-53 157,-34 206,-125 -129,22 -138,78 -156,57 -20,-21 63,-57 79,-63 26,-9 55,-16 88,-21 6,-22 4,-47 -11,-66 -72,-90 -262,92 -332,156l0 0c-190,176 0,392 227,402 154,7 292,-36 436,-81 190,-59 383,-107 576,-155zm-1038 -258c-30,22 -48,-2 -17,-24 30,-22 47,2 17,24z"/>
  <path class="fil5" d="M5618 10000l0 -2444 0 0c0,-275 115,-525 301,-706 481,-468 1164,-347 1562,166 -111,-266 -299,-424 -516,-508l0 -211 0 0c0,-73 30,-140 78,-188 117,-116 248,-96 360,-49 -31,-33 -67,-59 -109,-76l1 0c-41,-16 -86,-25 -135,-25l0 1 0 0 0 -1c-171,0 -313,138 -313,308l0 0 0 203c-19,-5 -38,-9 -57,-13l0 -190 0 0c0,-201 167,-364 370,-364l0 0 0 0 0 0c120,0 176,37 270,92 -56,-100 -211,-164 -342,-164l0 0 0 0 0 0c-227,0 -416,181 -416,407l0 0 0 0 0 0 0 200c-19,-2 -38,-4 -57,-5l0 -195 0 0 0 0 0 0c0,-377 443,-613 793,-349l0 0 38 29c-63,-121 -261,-216 -429,-216l0 0 0 0 0 0c-283,0 -520,225 -520,506l0 0 0 222c-19,0 -39,1 -58,2l0 -224 1 0c0,-155 65,-296 169,-398 271,-263 656,-195 880,94 -103,-248 -327,-330 -543,-330l0 0 0 0 0 0c-339,0 -624,268 -625,604l1 0 0 1 -1 0 0 268c-513,89 -913,527 -913,1056l0 0 0 1 0 0 0 2496 210 0zm3764 0l0 -2444 0 0c0,-275 -115,-525 -301,-706 -481,-468 -1164,-347 -1562,166 111,-266 299,-424 516,-508l0 -211 0 0c0,-73 -30,-140 -78,-188 -117,-116 -248,-96 -360,-49 31,-33 67,-59 109,-76l-1 0c41,-16 86,-25 135,-25l0 1 0 0 0 -1c171,0 313,138 313,308l0 0 0 203c19,-5 38,-9 57,-13l0 -190 0 0c0,-201 -167,-364 -370,-364l0 0 0 0 0 0c-120,0 -176,37 -270,92 56,-100 211,-164 342,-164l0 0 0 0 0 0c227,0 416,181 416,407l0 0 0 0 0 0 0 200c19,-2 38,-4 57,-5l0 -195 0 0 0 0 0 0c0,-377 -443,-613 -793,-349l0 0 -38 29c63,-121 261,-216 429,-216l0 0 0 0 0 0c283,0 520,225 520,506l0 0 0 222c19,0 39,1 58,2l0 -224 -1 0c0,-155 -65,-296 -169,-398 -271,-263 -656,-195 -880,94 103,-248 327,-330 543,-330l0 0 0 0 0 0c339,0 624,268 625,604l-1 0 0 1 1 0 0 268c513,89 913,527 913,1056l0 0 0 1 0 0 0 2496 -210 0zm-311 0l0 -2391 0 0 0 0 0 0c0,-670 -786,-1087 -1407,-620l0 0 -69 52c84,-159 333,-313 555,-361 67,-14 136,-22 207,-22l0 0 1 0 0 0c501,0 923,399 923,898l0 0 0 2444 -210 0zm-311 0l0 -2339 0 0c0,-358 -297,-647 -656,-647l0 0 0 0 0 0c-214,0 -313,67 -480,164 99,-177 374,-292 607,-292l0 1 0 0 0 -1c403,0 739,322 739,723l0 0 0 0 0 0 0 2391 -210 0zm-311 0l0 -2286 0 0c0,-130 -53,-248 -138,-333 -208,-208 -440,-172 -639,-87 55,-60 119,-105 193,-135l0 0c71,-30 151,-44 239,-44l0 0 0 0 0 0c303,0 555,244 555,546l0 0 0 2339 -210 0zm-2520 0l0 -2391 0 0 0 0 0 0c0,-670 786,-1087 1407,-620l0 0 69 52c-84,-159 -333,-313 -555,-361 -67,-14 -136,-22 -207,-22l0 0 -1 0 0 0c-501,0 -923,399 -923,898l0 0 0 2444 210 0zm311 0l0 -2339 0 0c0,-358 297,-647 656,-647l0 0 0 0 0 0c214,0 313,67 480,164 -99,-177 -374,-292 -607,-292l0 1 0 0 0 -1c-403,0 -739,322 -739,723l0 0 0 0 0 0 0 2391 210 0zm311 0l0 -2286 0 0c0,-130 53,-248 138,-333 208,-208 440,-172 639,-87 -55,-60 -119,-105 -193,-135l0 0c-71,-30 -151,-44 -239,-44l0 0 0 0 0 0c-303,0 -555,244 -555,546l0 0 0 2339 210 0z"/>
  <circle class="fil6" cx="7500" cy="6301" r="185"/>
  <path class="fil6" d="M7696 8976c-3,0 -5,0 -7,0l0 -64c225,0 225,-311 0,-311l0 -1078c0,-104 -85,-189 -189,-189 -104,0 -189,85 -189,189l0 126 -283 0 0 98 85 0 0 89 -85 0 0 98 85 0 0 89 -85 0 0 98c94,0 189,0 283,0l0 480c-225,0 -225,311 0,311l0 64c-162,-4 -295,122 -295,278 0,112 68,208 165,252 -11,180 135,331 319,331 184,0 330,-151 319,-331 97,-44 165,-140 165,-252 0,-153 -129,-278 -288,-278zm-53 432c49,105 -26,228 -143,228 -117,0 -192,-123 -143,-228 -121,-29 -202,-169 -137,-252 65,-82 221,-39 280,70 59,-110 215,-152 280,-70 65,83 -16,223 -137,252zm-57 -411c-32,13 -61,31 -86,53 -25,-22 -54,-40 -86,-53l172 0z"/>
</svg>